# xmcd
#
# Track frame offsets:
#      150
#      14437
#      33632
#      51057
#      67177
#      80082
#      92047
#      104335
#      129567
#      159527
#      182255
#      200525
# 
# Disc length: 2949 seconds
#
# Revision: 2
# Processed by: cddbd v1.4PL0 Copyright (c) Steve Scherf et al.
#
# Submitted via: FreeRIP 1.20
#
DISCID=a20b830c
DTITLE=SISSY GOODHOUSE - THE THIRD CIRCLE
DYEAR=1994
DGENRE=Native American
TTITLE0=Women's Veteran Song
TTITLE1=Woman's Song
TTITLE2=Children's Song
TTITLE3=Round Dance Song
TTITLE4=My Cousin
TTITLE5=I'm Going Home
TTITLE6=InterTribal Song #2 - Songs of the Wind
TTITLE7=Encouragement Song
TTITLE8=Veteran's Song 
TTITLE9=Strongheart
TTITLE10=Seventh Generation
TTITLE11=Cricket Song
EXTD=Wicaglata - women singers
EXTT0=
EXTT1=
EXTT2=
EXTT3=
EXTT4=
EXTT5=
EXTT6=
EXTT7=
EXTT8=
EXTT9=
EXTT10=
EXTT11=
PLAYORDER=
